<svg width="99" height="94" viewBox="0 0 99 94" fill="none" xmlns="http://www.w3.org/2000/svg">
<g id="Component 2">
<rect width="91" height="90" transform="translate(2 2)" fill="#1C1B39"/>
<path id="Vector 3" d="M57.4076 66.209C57.7021 67.0687 57.9049 69.2179 56.4128 69.6478C54.9207 70.0776 36.5184 69.6478 34.0316 69.6478M57.4076 66.209C57.1132 65.3493 55.5081 60.8278 51.4392 60.6209C44.3103 60.4777 31.5447 60.621 27.5658 61.9105C23.8384 63.1185 18.6132 68.7881 16.1264 72.2268C13.6396 75.6656 0.210815 91.9999 2.20027 91.9999C4.18972 91.9999 23.0896 91.9999 24.5816 91.9999C26.0736 91.9999 31.0474 82.5433 32.042 82.1134C33.0367 81.6836 52.4338 82.1134 61.3864 82.1134C70.3391 82.1134 72.3284 77.3851 73.3232 76.0955C74.073 75.1236 83.0153 62.9205 87.8013 56.0472M57.4076 66.209C63.0816 67.9284 66.8575 66.6388 68.8469 65.3493C70.8363 64.0597 76.8048 54.1732 82.2757 49.015C87.7466 43.8568 91.7255 49.4449 90.7309 51.5941C90.4858 52.1235 89.3656 53.8007 87.8013 56.0472M58.293 65.3493L75.0754 57.53M87.8013 56.0472C90.0372 54.5511 93 54.9767 93 57.1044C93 59.2322 83.7128 63.4878 81.5966 64.7644" stroke="#FDEDFF" stroke-width="3" stroke-linecap="round" stroke-linejoin="round"/>
<path id="Vector 4" d="M92.5767 40.0823L7.07904 61.36" stroke="#FDEDFF" stroke-width="10" stroke-linecap="square"/>
<path id="Vector 5" d="M43.479 42.21C45.5953 11.5699 27.8185 -7.96799 12.1582 7.31432C-2.23258 21.3577 17.6605 41.3587 43.479 42.21Z" stroke="#FDEDFF" stroke-width="3" stroke-linejoin="round"/>
<path id="Ellipse 1" d="M27.8148 11.9135C29.6054 14.7962 28.5645 18.8734 25.2313 20.9665C21.898 23.0596 17.7974 22.2111 16.0067 19.3284C14.216 16.4458 15.257 12.3686 18.5902 10.2755C21.9235 8.18241 26.0241 9.03088 27.8148 11.9135Z" stroke="#FDEDFF" stroke-width="2"/>
</g>
</svg>
